{
  "source": "C:\\Users\\Peter\\Desktop\\stuff\\MIUN\\quantitative_research\\video_compression\\videos\\BVI-HD\\BVI-HD_CDVL_videos\\ORIG\\TreeTrunk_1920x1080_50fps.mp4",
  "output": "C:\\Users\\Peter\\Desktop\\stuff\\MIUN\\quantitative_research\\video_compression\\compressed_videos\\BVI-HD\\av1\\2\\TreeTrunk_1920x1080_50fps_av1.mkv",
  "codec": "av1",
  "ok": "Input #0, mov,mp4,m4a,3gp,3g2,mj2, from 'C:\\Users\\Peter\\Desktop\\stuff\\MIUN\\quantitative_research\\video_compression\\videos\\BVI-HD\\BVI-HD_CDVL_videos\\ORIG\\TreeTrunk_1920x1080_50fps.mp4':\n  Metadata:\n    major_brand     : isom\n    minor_version   : 512\n    compatible_brands: isomiso2avc1mp41\n    encoder         : Lavf54.28.101\n  Duration: 00:00:05.00, start: 0.000000, bitrate: 622415 kb/s\n  Stream #0:0[0x1](und): Video: h264 (High 4:4:4 Predictive) (avc1 / 0x31637661), yuv420p(progressive), 1920x1080, 622410 kb/s, 50 fps, 50 tbr, 50 tbn (default)\n    Metadata:\n      handler_name    : VideoHandler\n      vendor_id       : [0][0][0][0]\n[out#0/matroska @ 00000223f3aaf0c0] Codec AVOption b:a (set bitrate (in bits/s)) has not been used for any stream. The most likely reason is either wrong type (e.g. a video option with no video streams) or that it is a private option of some decoder which was not actually used for any stream.\nStream mapping:\n  Stream #0:0 -> #0:0 (h264 (native) -> av1 (libsvtav1))\nPress [q] to stop, [?] for help\nSvt[info]: -------------------------------------------\nSvt[info]: SVT [version]:\tSVT-AV1 Encoder Lib v3.1.0-19-g6ecfe8ec\nSvt[info]: SVT [build]  :\tGCC 15.2.0\t 64 bit\nSvt[info]: LIB Build date: Aug 17 2025 11:37:13\nSvt[info]: -------------------------------------------\nSvt[info]: Level of Parallelism: 5\nSvt[info]: Number of PPCS 93\nSvt[info]: [asm level on system : up to avx2]\nSvt[info]: [asm level selected : up to avx2]\nSvt[info]: -------------------------------------------\nSvt[info]: SVT [config]: main profile\ttier (auto)\tlevel (auto)\nSvt[info]: SVT [config]: width / height / fps numerator / fps denominator \t\t: 1920 / 1080 / 50 / 1\nSvt[info]: SVT [config]: bit-depth / color format \t\t\t\t\t: 8 / YUV420\nSvt[info]: SVT [config]: preset / tune / pred struct \t\t\t\t\t: 4 / PSNR / random access\nSvt[info]: SVT [config]: gop size / mini-gop size / key-frame type \t\t\t: 321 / 16 / key frame\nSvt[info]: SVT [config]: BRC mode / target bitrate (kbps)\t\t\t\t: VBR / 2000 \nSvt[info]: SVT [config]: AQ mode / Variance Boost \t\t\t\t\t: 2 / 0\nSvt[info]: SVT [config]: sharpness / luminance-based QP bias \t\t\t\t: 0 / 0\nSvt[info]: SVT [config]: QP scale compress strength \t\t\t\t\t: 0\nSvt[info]: -------------------------------------------\nOutput #0, matroska, to 'C:\\Users\\Peter\\Desktop\\stuff\\MIUN\\quantitative_research\\video_compression\\compressed_videos\\BVI-HD\\av1\\2\\TreeTrunk_1920x1080_50fps_av1.mkv':\n  Metadata:\n    major_brand     : isom\n    minor_version   : 512\n    compatible_brands: isomiso2avc1mp41\n    encoder         : Lavf62.3.100\n  Stream #0:0(und): Video: av1 (AV01 / 0x31305641), yuv420p(tv, progressive), 1920x1080, q=2-31, 2000 kb/s, 50 fps, 1k tbn (default)\n    Metadata:\n      encoder         : Lavc62.11.100 libsvtav1\n      handler_name    : VideoHandler\n      vendor_id       : [0][0][0][0]\n    Side data:\n      cpb: bitrate max/min/avg: 0/0/2000000 buffer size: 2000000 vbv_delay: N/A\nframe=    0 fps=0.0 q=0.0 size=       0KiB time=N/A bitrate=N/A speed=N/A elapsed=0:00:01.12    \nframe=    0 fps=0.0 q=0.0 size=       0KiB time=N/A bitrate=N/A speed=N/A elapsed=0:00:01.68    \nframe=    0 fps=0.0 q=0.0 size=       0KiB time=N/A bitrate=N/A speed=N/A elapsed=0:00:02.30    \nframe=    0 fps=0.0 q=0.0 size=       0KiB time=N/A bitrate=N/A speed=N/A elapsed=0:00:02.89    \nframe=    0 fps=0.0 q=0.0 size=       0KiB time=N/A bitrate=N/A speed=N/A elapsed=0:00:03.59    \nframe=    0 fps=0.0 q=0.0 size=       0KiB time=N/A bitrate=N/A speed=N/A elapsed=0:00:04.11    \nframe=    0 fps=0.0 q=0.0 size=       0KiB time=N/A bitrate=N/A speed=N/A elapsed=0:00:04.62    \nframe=    0 fps=0.0 q=0.0 size=       0KiB time=N/A bitrate=N/A speed=N/A elapsed=0:00:05.15    \nframe=    0 fps=0.0 q=0.0 size=       0KiB time=N/A bitrate=N/A speed=N/A elapsed=0:00:05.68    \nframe=    0 fps=0.0 q=0.0 size=       0KiB time=N/A bitrate=N/A speed=N/A elapsed=0:00:06.24    \nframe=    0 fps=0.0 q=0.0 size=       0KiB time=N/A bitrate=N/A speed=N/A elapsed=0:00:06.81    \nframe=    0 fps=0.0 q=0.0 size=       0KiB time=N/A bitrate=N/A speed=N/A elapsed=0:00:07.39    \nframe=    1 fps=0.1 q=25.0 size=       1KiB time=N/A bitrate=N/A speed=N/A elapsed=0:00:07.90    \nframe=    1 fps=0.1 q=25.0 size=       1KiB time=00:00:00.00 bitrate=N/A speed=   0x elapsed=0:00:08.52    \nframe=    1 fps=0.1 q=25.0 size=       1KiB time=00:00:00.00 bitrate=N/A speed=   0x elapsed=0:00:09.06    \nframe=    1 fps=0.1 q=25.0 size=       1KiB time=00:00:00.00 bitrate=N/A speed=   0x elapsed=0:00:09.63    \nframe=    6 fps=0.6 q=53.0 size=       1KiB time=00:00:00.10 bitrate=  57.0kbits/s speed=0.0098x elapsed=0:00:10.20    \nframe=   13 fps=1.2 q=50.0 size=       1KiB time=00:00:00.20 bitrate=  28.5kbits/s speed=0.0183x elapsed=0:00:10.91    \nframe=   13 fps=1.1 q=50.0 size=       1KiB time=00:00:00.24 bitrate=  23.8kbits/s speed=0.0208x elapsed=0:00:11.54    \nframe=   13 fps=1.1 q=50.0 size=       1KiB time=00:00:00.24 bitrate=  23.8kbits/s speed=0.0199x elapsed=0:00:12.05    \nframe=   16 fps=1.3 q=53.0 size=       1KiB time=00:00:00.30 bitrate=  19.0kbits/s speed=0.0238x elapsed=0:00:12.60    \nframe=   23 fps=1.8 q=51.0 size=       1KiB time=00:00:00.44 bitrate=  13.0kbits/s speed=0.0335x elapsed=0:00:13.14    \nframe=   29 fps=2.1 q=48.0 size=       1KiB time=00:00:00.56 bitrate=  10.2kbits/s speed=0.0409x elapsed=0:00:13.68    \nframe=   29 fps=2.0 q=48.0 size=       1KiB time=00:00:00.56 bitrate=  10.2kbits/s speed=0.0394x elapsed=0:00:14.20    \nframe=   30 fps=2.0 q=54.0 size=       1KiB time=00:00:00.58 bitrate=   9.8kbits/s speed=0.0394x elapsed=0:00:14.71    \nframe=   38 fps=2.5 q=52.0 size=       1KiB time=00:00:00.70 bitrate=   8.1kbits/s speed=0.046x elapsed=0:00:15.22    \nframe=   44 fps=2.8 q=53.0 size=       1KiB time=00:00:00.84 bitrate=   6.8kbits/s speed=0.0532x elapsed=0:00:15.79    \nframe=   45 fps=2.7 q=48.0 size=       1KiB time=00:00:00.88 bitrate=   6.5kbits/s speed=0.0537x elapsed=0:00:16.39    \nframe=   51 fps=3.0 q=51.0 size=       1KiB time=00:00:01.00 bitrate=   5.7kbits/s speed=0.0591x elapsed=0:00:16.92    \nframe=   59 fps=3.4 q=51.0 size=       1KiB time=00:00:01.16 bitrate=   4.9kbits/s speed=0.0663x elapsed=0:00:17.48    \nframe=   61 fps=3.4 q=48.0 size=       1KiB time=00:00:01.20 bitrate=   4.8kbits/s speed=0.0665x elapsed=0:00:18.04    \nframe=   62 fps=3.3 q=53.0 size=       1KiB time=00:00:01.22 bitrate=   4.7kbits/s speed=0.0657x elapsed=0:00:18.56    \nframe=   71 fps=3.7 q=50.0 size=       1KiB time=00:00:01.38 bitrate=   4.1kbits/s speed=0.0723x elapsed=0:00:19.08    \nframe=   77 fps=3.9 q=48.0 size=       1KiB time=00:00:01.52 bitrate=   3.8kbits/s speed=0.0772x elapsed=0:00:19.68    \nframe=   77 fps=3.8 q=48.0 size=       1KiB time=00:00:01.52 bitrate=   3.8kbits/s speed=0.0752x elapsed=0:00:20.21    \nframe=   88 fps=4.2 q=52.0 size=       1KiB time=00:00:01.72 bitrate=   3.3kbits/s speed=0.0829x elapsed=0:00:20.74    \nframe=   93 fps=4.4 q=48.0 size=       1KiB time=00:00:01.84 bitrate=   3.1kbits/s speed=0.0862x elapsed=0:00:21.34    \nframe=   94 fps=4.3 q=53.0 size=       1KiB time=00:00:01.86 bitrate=   3.1kbits/s speed=0.085x elapsed=0:00:21.87    \nframe=  104 fps=4.6 q=52.0 size=       1KiB time=00:00:02.04 bitrate=   2.8kbits/s speed=0.091x elapsed=0:00:22.40    \nframe=  109 fps=4.7 q=48.0 size=       1KiB time=00:00:02.16 bitrate=   2.6kbits/s speed=0.094x elapsed=0:00:22.97    \nframe=  109 fps=4.6 q=48.0 size=       1KiB time=00:00:02.16 bitrate=   2.6kbits/s speed=0.0919x elapsed=0:00:23.49    \nframe=  116 fps=4.8 q=52.0 size=       1KiB time=00:00:02.30 bitrate=   2.5kbits/s speed=0.0958x elapsed=0:00:24.00    \nframe=  125 fps=5.1 q=48.0 size=       1KiB time=00:00:02.46 bitrate=   2.3kbits/s speed= 0.1x elapsed=0:00:24.58    \nframe=  125 fps=5.0 q=48.0 size=       1KiB time=00:00:02.48 bitrate=   2.3kbits/s speed=0.0986x elapsed=0:00:25.15    \nframe=  133 fps=5.2 q=47.0 size=       1KiB time=00:00:02.64 bitrate=   2.2kbits/s speed=0.103x elapsed=0:00:25.66    \nframe=  141 fps=5.4 q=48.0 size=       1KiB time=00:00:02.80 bitrate=   2.0kbits/s speed=0.107x elapsed=0:00:26.19    \nframe=  141 fps=5.3 q=48.0 size=       1KiB time=00:00:02.80 bitrate=   2.0kbits/s speed=0.105x elapsed=0:00:26.72    \nframe=  143 fps=5.2 q=51.0 size=       1KiB time=00:00:02.84 bitrate=   2.0kbits/s speed=0.104x elapsed=0:00:27.24    \nframe=  157 fps=5.7 q=48.0 size=       1KiB time=00:00:03.12 bitrate=   1.8kbits/s speed=0.112x elapsed=0:00:27.76    \nframe=  161 fps=5.7 q=29.0 size=       1KiB time=00:00:03.20 bitrate=   1.8kbits/s speed=0.113x elapsed=0:00:28.27    \nframe=  161 fps=5.6 q=29.0 size=       1KiB time=00:00:03.20 bitrate=   1.8kbits/s speed=0.111x elapsed=0:00:28.79    \nframe=  177 fps=6.0 q=30.0 size=       1KiB time=00:00:03.52 bitrate=   1.6kbits/s speed=0.12x elapsed=0:00:29.31    \nframe=  177 fps=5.9 q=30.0 size=       1KiB time=00:00:03.52 bitrate=   1.6kbits/s speed=0.118x elapsed=0:00:29.89    \nframe=  185 fps=6.1 q=44.0 size=       1KiB time=00:00:03.68 bitrate=   1.6kbits/s speed=0.121x elapsed=0:00:30.41    \nframe=  193 fps=6.2 q=31.0 size=       1KiB time=00:00:03.84 bitrate=   1.5kbits/s speed=0.124x elapsed=0:00:30.95    \nframe=  195 fps=6.2 q=52.0 size=       1KiB time=00:00:03.88 bitrate=   1.5kbits/s speed=0.123x elapsed=0:00:31.51    \nframe=  209 fps=6.5 q=31.0 size=       1KiB time=00:00:04.16 bitrate=   1.4kbits/s speed=0.13x elapsed=0:00:32.04    \nframe=  209 fps=6.4 q=31.0 size=       1KiB time=00:00:04.16 bitrate=   1.4kbits/s speed=0.128x elapsed=0:00:32.55    \nframe=  223 fps=6.7 q=53.0 size=       1KiB time=00:00:04.44 bitrate=   1.3kbits/s speed=0.134x elapsed=0:00:33.06    \nframe=  225 fps=6.7 q=33.0 size=       1KiB time=00:00:04.48 bitrate=   1.3kbits/s speed=0.133x elapsed=0:00:33.59    \nframe=  237 fps=6.9 q=50.0 size=       1KiB time=00:00:04.72 bitrate=   1.2kbits/s speed=0.138x elapsed=0:00:34.10    \n[out#0/matroska @ 00000223f3aaf0c0] video:947KiB audio:0KiB subtitle:0KiB other streams:0KiB global headers:0KiB muxing overhead: 0.194368%\nframe=  250 fps=7.3 q=49.0 Lsize=     949KiB time=00:00:04.98 bitrate=1561.0kbits/s speed=0.145x elapsed=0:00:34.39    \n",
  "seconds": 35.04100775718689,
  "probe_out": {}
}